<?xml version="1.0" encoding="UTF-8"?>
<svg id="synergy-logo" width="409.96" height="65.511" version="1.1" viewBox="0 0 409.96 65.511" xmlns="http://www.w3.org/2000/svg">
 <path id="s" d="m24.149 0.00118q7.8354 0 15.671 3.0828l-1.67 9.5054-1.5413 0.3852q-3.5966-2.8257-6.8081-4.1104-3.2113-1.413-6.6794-1.413-5.5235 0-8.7347 2.9544-3.2113 2.826-3.2113 6.551t3.0828 6.0372q3.2113 2.3121 9.7623 5.1379 5.7801 2.5688 9.1201 4.6241 3.4682 2.0552 5.9088 5.5232 2.5691 3.3397 2.5691 8.2207 0 5.0095-2.6975 9.3769-2.6975 4.2388-7.9641 6.9363-5.1379 2.5691-12.331 2.5691-4.4957 0-9.5054-1.0279-4.881-1.1561-9.1201-3.3397l1.1561-10.148 1.2845-0.51398q3.5966 3.5966 8.3494 5.6517 4.881 1.9267 8.9914 1.9267 5.395 0 8.8632-2.8257 3.4682-2.9544 3.4682-7.0648 0-3.8535-3.2113-6.1657-3.0828-2.3121-9.7623-5.3948-5.5235-2.4404-9.1201-4.4957-3.4682-2.0552-5.9088-5.3948-2.4406-3.4682-2.4406-8.3492 0-5.1381 2.6975-9.2485 2.826-4.1104 7.8354-6.551 5.1381-2.4406 11.946-2.4406z" fill="#333"/>
 <path id="y" d="m77.897 46.245 0.38523 18.368h-9.6338l0.51398-18.368-0.12876-3.9819-21.708-41.619h10.533l1.2845 3.725 14.386 27.488h0.64274l15.671-27.103 1.6698-4.1104h10.276l-23.763 41.619z" fill="#333"/>
 <path id="n" d="m165.28 45.473 0.12875 19.139h-10.276l-33.654-48.81h-0.64168l-0.12875 27.488 0.25647 21.323h-8.7347l0.38523-18.882-0.25645-45.085h10.148l33.654 48.81h0.89918l-0.25645-48.426 8.8632-0.64167z" fill="#333"/>
 <path id="e-top" d="m192.85 8.6073q-1.2845 0-2.5691 1.028-1.2845 0.89919-4.2388 3.5966 0 0-1.9267 1.9267h-1.1561l-2.8257-3.4682v-1.156l9.3769-9.3769 1.2844-0.51396q3.2113 0.3852 12.588 3.2113 4.1104 1.1561 7.8354 2.1837 3.8535 0.89919 5.2663 0.89919 1.2845 0 2.6975-1.0279 1.413-1.1561 3.2113-2.826 1.9267-1.7983 2.826-2.6975h1.028l2.826 3.4682v1.1561l-9.377 9.5054-1.2844 0.25645q-2.826-0.3852-13.744-3.3397-0.77043-0.25647-5.3948-1.5414-4.6241-1.2845-6.4226-1.2845z" fill="#2a4584"/>
 <path id="e-middle" d="m226.76 29.646-7.6736 0.26808h-28.47l-8.05-0.26278-0.76939 7.5754 0.63851 0.90025 7.4498-0.25645h28.613l8.1317 0.26806 0.76939-7.5812z" fill="#83c0eb"/>
 <path id="e-bottom" d="m226.76 56.118-7.6736 0.26806h-28.47l-8.05-0.26278-0.76939 7.5754 0.63851 0.90025 7.4498-0.25647h28.613l8.1317 0.26808 0.76939-7.5812z" fill="#ed1169"/>
 <path id="r" d="m271.66 38.794q7.8356 11.946 17.341 23.506l-0.12868 1.2845q-5.395 1.6698-8.8632 1.9267l-1.6698-1.028q-9.7623-14.772-14.772-23.249l-12.074 0.12868v3.2113l0.25647 20.038h-9.5054l0.38522-19.267-0.38522-44.7 21.836-0.12868q10.148 0 15.543 4.7526 5.5235 4.7526 5.5235 13.744 0 6.551-3.5966 11.689-3.4682 5.1381-9.8907 8.0923zm-20.038-5.395 12.074 0.38523q11.432-3.2113 11.432-14.001 0-5.6519-3.3397-8.4779t-10.148-3.0828l-9.8907 0.12868z" fill="#333"/>
 <path id="g" d="m328.24 0.00118q10.019 0 20.166 4.3672l-3.2113 9.2485h-1.1561q-4.7526-3.0828-8.7345-4.2388-3.9819-1.2844-8.606-1.2844-10.918 0-16.442 6.1654-5.3948 6.1657-5.3948 19.267 0 12.588 5.0095 18.24 5.0094 5.5232 15.928 5.5232 3.2113 0 6.1657-0.51396 2.9544-0.64274 7.1932-2.1836v-6.4226l-0.12869-9.1201 8.8632-0.64274v23.121q-12.973 3.8535-22.479 3.8535-15.157 0-22.992-8.0923-7.707-8.2207-7.707-23.378 0-16.441 8.7345-25.175 8.8632-8.7347 24.791-8.7347z" fill="#333"/>
 <path id="y2" d="m386.07 46.245 0.3852 18.368h-9.6338l0.51396-18.368-0.12869-3.9819-21.708-41.619h10.533l1.2845 3.725 14.386 27.488h0.64274l15.671-27.103 1.6698-4.1104h10.276l-23.763 41.619z" fill="#333"/>
</svg>
